<svg width="48" height="48" viewBox="0 0 48 48" fill="none" xmlns="http://www.w3.org/2000/svg">
<path fill-rule="evenodd" clip-rule="evenodd" d="M24 0C17.6348 0 11.5303 2.52856 7.02944 7.02944C2.52856 11.5303 0 17.6348 0 24C0 30.3652 2.52856 36.4697 7.02944 40.9706C11.5303 45.4714 17.6348 48 24 48C30.3652 48 36.4697 45.4714 40.9706 40.9706C45.4714 36.4697 48 30.3652 48 24C48 17.6348 45.4714 11.5303 40.9706 7.02944C36.4697 2.52856 30.3652 0 24 0ZM35.0079 34.6151C34.9056 34.7832 34.7712 34.9294 34.6123 35.0454C34.4535 35.1614 34.2732 35.2449 34.082 35.2911C33.8908 35.3373 33.6923 35.3453 33.498 35.3147C33.3037 35.284 33.1173 35.2153 32.9496 35.1124C27.3131 31.6693 20.2227 30.8914 11.8674 32.7992C11.676 32.8429 11.4778 32.8484 11.2842 32.8156C11.0907 32.7827 10.9055 32.712 10.7392 32.6076C10.573 32.5031 10.4289 32.367 10.3153 32.2069C10.2016 32.0467 10.1206 31.8658 10.0769 31.6744C10.0332 31.483 10.0277 31.2848 10.0605 31.0913C10.0934 30.8977 10.1641 30.7125 10.2685 30.5462C10.373 30.38 10.5091 30.2359 10.6692 30.1223C10.8294 30.0086 11.0103 29.9277 11.2017 29.884C20.3426 27.7926 28.1853 28.6929 34.5105 32.5594C35.2145 32.9904 35.4363 33.9112 35.0079 34.6151ZM37.9409 28.0808C37.6814 28.503 37.265 28.8051 36.7831 28.9208C36.3011 29.0365 35.793 28.9564 35.37 28.698C28.9199 24.732 19.0852 23.5843 11.4542 25.9001C10.9899 26.0102 10.5011 25.9392 10.0874 25.7014C9.67367 25.4636 9.3662 25.077 9.22766 24.6204C9.08911 24.1638 9.12991 23.6715 9.34174 23.2439C9.55357 22.8164 9.92048 22.4857 10.3677 22.3192C19.0852 19.6744 29.9197 20.9573 37.3263 25.5073C37.536 25.6359 37.7184 25.8045 37.863 26.0035C38.0075 26.2026 38.1114 26.4282 38.1688 26.6674C38.2261 26.9066 38.2357 27.1548 38.197 27.3978C38.1584 27.6407 38.0722 27.8737 37.9435 28.0833L37.9409 28.0808ZM38.1985 21.2761C30.4604 16.6827 17.6978 16.2593 10.3141 18.5037C10.0308 18.5941 9.73229 18.6273 9.43601 18.6013C9.13972 18.5753 8.85156 18.4907 8.58826 18.3524C8.32496 18.2141 8.09177 18.0248 7.90226 17.7956C7.71274 17.5664 7.57067 17.3018 7.48431 17.0172C7.39795 16.7326 7.36901 16.4336 7.39919 16.1378C7.42936 15.8419 7.51805 15.5549 7.66008 15.2936C7.80212 15.0323 7.99467 14.8018 8.22656 14.6156C8.45845 14.4293 8.72504 14.291 9.01084 14.2087C17.4861 11.6327 31.58 12.1326 40.4837 17.4172C40.9958 17.7209 41.3662 18.2156 41.5136 18.7925C41.6609 19.3693 41.573 19.981 41.2693 20.4931C40.9656 21.0052 40.4709 21.3756 39.894 21.5229C39.3172 21.6702 38.7055 21.5824 38.1934 21.2786" fill="white"/>
</svg>
